<?xml version="1.0" standalone="no" ?>
<!DOCTYPE svg PUBLIC "-//W3C//DTD SVG 20010904//EN"
  "http://www.w3.org/TR/2001/REC-SVG-20010904/DTD/svg10.dtd">
<svg
  version="1.0"
  xmlns="http://www.w3.org/2000/svg"
  width="20.000000pt"
  height="12.000000pt"
  viewBox="0 0 20.000000 12.000000"
  preserveAspectRatio="xMidYMid meet"
>

<g
    transform="translate(0.000000,12.000000) scale(0.100000,-0.100000)"
    fill="#0288D1"
    stroke="none"
  >
<path
      d="M70 85 l-23 -25 23 -25 c12 -13 27 -22 32 -19 4 3 -2 14 -14 24 -23
18 -23 18 -4 39 28 30 14 36 -14 6z"
    />
<path
      d="M120 85 l-23 -25 23 -25 c12 -13 27 -22 32 -19 4 3 -2 14 -14 24 -23
18 -23 18 -4 39 28 30 14 36 -14 6z"
    />
</g>
</svg>
